<svg id="Layer_1" data-name="Layer 1" xmlns="http://www.w3.org/2000/svg" viewBox="0 0 139.73 139.67"><defs><style>.cls-1{fill:#fff;}</style></defs><path class="cls-1" d="M96.36,169.81c9.41.16,11.85-.33,18.57-2.13a92.87,92.87,0,0,0,25-11.19A64.21,64.21,0,0,0,156.41,142a61.1,61.1,0,0,0,12.24-27.36,74.66,74.66,0,0,0,1.13-17.14,44.87,44.87,0,0,0-2.9-13.21,122,122,0,0,0-9.32-19.46c-6.7-11.65-15.69-21-27.67-27.4a61.11,61.11,0,0,0-23.82-6.94,91.5,91.5,0,0,0-18.42.45A82.6,82.6,0,0,0,64.14,37a52.36,52.36,0,0,0-16,10.52c-6.1,6-10.16,13.21-13,21.18a90.61,90.61,0,0,0-4.83,25,58.7,58.7,0,0,0,1.71,19,125.34,125.34,0,0,0,12.46,29.67A68.09,68.09,0,0,0,52.69,154a44.38,44.38,0,0,0,25.25,14.11A89.68,89.68,0,0,0,96.36,169.81Z" transform="translate(-30.14 -30.16)"/><path d="M96.36,169.81a89.68,89.68,0,0,1-18.42-1.66A44.38,44.38,0,0,1,52.69,154a68.09,68.09,0,0,1-8.24-11.57A125.34,125.34,0,0,1,32,112.8a58.7,58.7,0,0,1-1.71-19,90.61,90.61,0,0,1,4.83-25c2.84-8,6.9-15.21,13-21.18A52.36,52.36,0,0,1,64.14,37a82.6,82.6,0,0,1,23.51-6.15,91.5,91.5,0,0,1,18.42-.45,61.11,61.11,0,0,1,23.82,6.94c12,6.36,21,15.75,27.67,27.4a122,122,0,0,1,9.32,19.46,44.87,44.87,0,0,1,2.9,13.21,74.66,74.66,0,0,1-1.13,17.14A61.1,61.1,0,0,1,156.41,142a64.21,64.21,0,0,1-16.5,14.54,92.87,92.87,0,0,1-25,11.19C108.21,169.48,105.77,170,96.36,169.81ZM84.18,78.91c.12,1.2.18,2.3.36,3.37A16.38,16.38,0,0,0,90.76,93a1.58,1.58,0,0,1,.44.87,3.47,3.47,0,0,1,0,1.16c-.09.75.19,1,1,1,3,0,5.91,0,8.86,0,.65,0,.93.2,1,.84a20.88,20.88,0,0,0,.57,2l6.18-1.73-1-3.51c-.31-1.12-.61-2.24-.92-3.36l.18-.17a6,6,0,0,0,5.45.7,5.36,5.36,0,0,0,3.57-4.12,5.73,5.73,0,0,0-5.43-6.88l-.17-.87h-.9c-2,0-4.08,0-6.12,0a1,1,0,0,1-.83-.42,2.17,2.17,0,0,0-2.15-1.37,2.43,2.43,0,0,0-2.42,1.29.83.83,0,0,1-.9.51c-2.07,0-4.13,0-6.2,0Zm18.37,29.41c0,.33-.06.58-.06.82,0,4.41,0,8.82,0,13.23,0,.82.35.89,1,.87s1.09,0,1.07-.88c-.06-2.87,0-5.74,0-8.61v-.85a.94.94,0,0,1,.29.61c.48,3,1,6,1.41,9.07.08.51.26.78.78.67s1.26.38,1.38-.66c.19-1.56.48-3.1.72-4.66q.42-2.64.83-5.28a5.41,5.41,0,0,1,.16,1.59c0,2.75,0,5.51,0,8.27,0,.8.45.75,1,.72s1.08.24,1.08-.68c0-4.52,0-9,0-13.57,0-.49-.14-.7-.66-.68-.74,0-1.49,0-2.23,0-.49,0-.68.18-.74.65-.17,1.23-.36,2.46-.55,3.68s-.34,2.2-.51,3.3a1,1,0,0,1-.29-.61c-.32-2.1-.62-4.2-1-6.29,0-.26-.3-.67-.48-.68C104.63,108.28,103.61,108.32,102.55,108.32Zm-47.29.07a1.87,1.87,0,0,0-.09.4q0,6.94,0,13.88c0,.48.22.61.66.59.79,0,1.59,0,2.39,0a2.49,2.49,0,0,0,2.56-2.57c0-.85,0-1.7,0-2.56a10.3,10.3,0,0,0-.5-3.61c-.41-1.05.08-2.42,0-3.64A2.54,2.54,0,0,0,58,108.4C57.14,108.35,56.23,108.39,55.26,108.39Zm29.53,0v14.84h2v-3.06l.22-.06a6.06,6.06,0,0,1,.36.66c.26.66.48,1.35.76,2,.09.21.33.48.53.5a15,15,0,0,0,1.79,0c-.39-1.07-.71-2-1.06-2.93a.84.84,0,0,1,.15-.94,3.41,3.41,0,0,0,.75-1.75c.09-2.31.07-4.63,0-6.94a2.38,2.38,0,0,0-2.25-2.34C87,108.32,86,108.37,84.79,108.37Zm10.3,0c0,.25,0,.44,0,.63q0,5.46,0,10.92a4.51,4.51,0,0,0,.1.9,3.07,3.07,0,0,0,6.06-.67c0-3.78,0-7.56,0-11.34a2.2,2.2,0,0,0-.07-.41h-2v11a7.61,7.61,0,0,1,0,.83,1,1,0,0,1-1,1,1,1,0,0,1-1-.89,3.94,3.94,0,0,1,0-.91c0-3.36,0-6.73,0-10.09,0-.32,0-.64,0-1Zm37.14,14.8c0-.28,0-.49-.09-.7-.72-4.13-1.45-8.25-2.16-12.38-.32-1.8-.31-1.77-2.16-1.81-.7,0-.94.21-1,.89-.47,3.28-1,6.55-1.47,9.82-.21,1.37-.41,2.76-.62,4.17h2c.23-1.7.46-3.36.7-5.08a10.47,10.47,0,0,0,1.13,0c.71-.09,1,.14,1.09.91.13,1.39.39,2.78.6,4.19ZM71,113.11a23.57,23.57,0,0,0,0-2.8,2.71,2.71,0,0,0-2.4-2.28,2.59,2.59,0,0,0-2.93,1.66c-.46,1.63-.8,3.32.46,4.85.73.89,1.29,1.93,2.07,2.78A3.82,3.82,0,0,1,69,120.4c0,.49-.19.88-.75.9a.78.78,0,0,1-.83-.84c0-.55,0-1.11-.06-1.65,0-.2-.25-.51-.41-.53a11.94,11.94,0,0,0-1.6,0c0,.86,0,1.57,0,2.28a2.91,2.91,0,0,0,2.87,2.85,2.87,2.87,0,0,0,2.84-2.78,21.35,21.35,0,0,0,0-2.4,1.7,1.7,0,0,0-.34-.81c-.83-1.2-1.64-2.42-2.57-3.54a3.54,3.54,0,0,1-.77-2.76c0-.56.22-1,.85-1s.77.51.77,1v2Zm73.57-4.71h-4.79v14.79h4.8v-1.94h-2.83c0-1.52,0-3,0-4.38,0-1.78-.18-1.48,1.47-1.51a3.44,3.44,0,0,0,.91,0,.82.82,0,0,0,.47-.48,3.17,3.17,0,0,0,0-.82c0-.49-.15-.7-.66-.67a9.09,9.09,0,0,1-1.65,0c-.2,0-.52-.26-.53-.41-.05-.84,0-1.69,0-2.61h1.26C144.83,110.34,144.83,110.33,144.61,108.4Zm-61.27,0H78.53v13.35a5.44,5.44,0,0,0,0,1c0,.19.25.48.39.48,1.48,0,3,0,4.44,0v-2H80.56c0-1.87,0-3.62,0-5.38a.77.77,0,0,1,.55-.48c.73-.06,1.46,0,2.29,0a10.87,10.87,0,0,1,0-1.16c.08-.68-.21-.89-.85-.83a7.42,7.42,0,0,1-1.49,0c-.18,0-.49-.22-.5-.35,0-.87,0-1.74,0-2.67h1.27C83.65,110.34,83.65,110.33,83.34,108.41Zm40,3.55a2.86,2.86,0,0,0-2.3-3.58,2.7,2.7,0,0,0-3.17,2.51c-.08,3.25-.07,6.5,0,9.75a2.66,2.66,0,0,0,2.66,2.55,2.79,2.79,0,0,0,2.85-2.26c.34-1.69,0-2.06-1.71-1.82,0,0-.09,0-.26.14,0,.31,0,.69,0,1.07s-.29.93-.8.82a1.14,1.14,0,0,1-.72-.79q-.07-4.59,0-9.18c0-.27.47-.54.73-.81a5.32,5.32,0,0,1,.76.82,1.92,1.92,0,0,1,.11.78Zm12.29,1.54v-3.16h1.27c1.75,0,1.79,0,1.52-1.81,0,0,0,0-.07-.1h-4.69a2,2,0,0,0-.06.31c0,4.62,0,9.25,0,13.88,0,.8.54.61,1,.6s1,.22,1-.63q0-2.85,0-5.7c0-1.68-.21-1.45,1.43-1.46s1.74-.06,1.46-1.79c0,0,0,0-.11-.14Zm-61.23,7.79v-1.1c0-3.67,0-7.33,0-11,0-.29-.05-.8-.16-.82a4.21,4.21,0,0,0-1.54-.07c-.14,0-.28.53-.29.82q0,6.65,0,13.3c0,.26,0,.52.07.76h4.75v-1.9Zm19.35,1.88V108.39H91.8v14.78h1.92Zm-31.58,0H63c1.07,0,1.07,0,1.07-1.08,0-4.29,0-8.59,0-12.88,0-.84-.35-.91-1-.92s-1,.11-1,.93c0,4.35,0,8.7,0,13C62.09,122.54,62.11,122.8,62.14,123.17Z" transform="translate(-30.14 -30.16)"/><path class="cls-1" d="M84.18,78.91H91c2.07,0,4.13,0,6.2,0a.83.83,0,0,0,.9-.51,2.43,2.43,0,0,1,2.42-1.29,2.17,2.17,0,0,1,2.15,1.37,1,1,0,0,0,.83.42c2,0,4.08,0,6.12,0h.9l.17.87a5.73,5.73,0,0,1,5.43,6.88,5.36,5.36,0,0,1-3.57,4.12,6,6,0,0,1-5.45-.7l-.18.17c.31,1.12.61,2.24.92,3.36l1,3.51-6.18,1.73a20.88,20.88,0,0,1-.57-2c-.12-.64-.4-.85-1-.84-3,0-5.91,0-8.86,0-.77,0-1-.23-1-1a3.47,3.47,0,0,0,0-1.16,1.58,1.58,0,0,0-.44-.87,16.38,16.38,0,0,1-6.22-10.75C84.36,81.21,84.3,80.11,84.18,78.91Zm.58.43c-.05.13-.1.2-.09.28a17,17,0,0,0,4,10.94,6,6,0,0,0,3.17,2.38,13.25,13.25,0,0,0,8.12-.31,1.77,1.77,0,0,0,1-1.07c.33-.75.32-1.79,1.46-2a5.59,5.59,0,0,1-.71-3.85c.18-1.79.4-3.56.6-5.34.09-.75-.14-1-1-1-5.27,0-10.53,0-15.79,0C85.29,79.3,85,79.33,84.76,79.34Zm23.25.09h-5c-.23,1.91-.52,3.73-.65,5.56a19.83,19.83,0,0,0,.17,3.44c0,.33.5.88.72.85a2.09,2.09,0,0,0,1.41-.64A20.9,20.9,0,0,0,108,79.43Zm.22,9.09a3.81,3.81,0,0,0,4.52.18,3.64,3.64,0,0,0,1.58-4,3.87,3.87,0,0,0-3.22-3c-.51-.06-.63.15-.75.61-.38,1.46-.8,2.91-1.27,4.35A17.13,17.13,0,0,1,108.23,88.52Zm2-9.1c-.3,0-.47,0-.63-.06-.86-.15-1.21.16-1.38,1.08A25.34,25.34,0,0,1,107,84.9c-.52,1.4-1.28,2.72-1.94,4.1l.69.53.86.61A17.63,17.63,0,0,0,110.22,79.42Zm-2.76,10.31a5.23,5.23,0,0,0,7.9-6.36c-.84-1.91-3.07-3.34-4.76-3-.07.48-.27.93.56,1a4.18,4.18,0,0,1,2.19,7.26,4.11,4.11,0,0,1-4.71.6C107.9,88.87,107.65,89.1,107.46,89.73ZM92.19,93.52c.26.14.51.3.78.42a11,11,0,0,0,6.93.71c1.52-.38,1.56-.41,1-1.88,0,0,0,0-.11-.13A13.45,13.45,0,0,1,92.19,93.52Zm9.18,1a11.36,11.36,0,0,1-9.7-.79c0,.36,0,.58,0,.8,0,1.15,0,1.15,1.16,1.15h8.91Zm.76-15.61a1.4,1.4,0,0,0-1.54-1.21,1.8,1.8,0,0,0-2,1.21Z" transform="translate(-30.14 -30.16)"/><path class="cls-1" d="M102.55,108.32c1.06,0,2.08,0,3.09,0,.18,0,.44.42.48.68.35,2.09.65,4.19,1,6.29a1,1,0,0,0,.29.61c.17-1.1.35-2.2.51-3.3s.38-2.45.55-3.68c.06-.47.25-.67.74-.65.74,0,1.49,0,2.23,0,.52,0,.66.19.66.68,0,4.53,0,9,0,13.57,0,.92-.61.64-1.08.68s-1,.08-1-.72c0-2.76,0-5.52,0-8.27a5.41,5.41,0,0,0-.16-1.59q-.41,2.64-.83,5.28c-.24,1.56-.53,3.1-.72,4.66-.12,1-.87.56-1.38.66s-.7-.16-.78-.67c-.45-3-.93-6-1.41-9.07a.94.94,0,0,0-.29-.61v.85c0,2.87,0,5.74,0,8.61,0,.9-.44.87-1.07.88s-1,0-1-.87c0-4.41,0-8.82,0-13.23C102.49,108.9,102.52,108.65,102.55,108.32Z" transform="translate(-30.14 -30.16)"/><path class="cls-1" d="M55.26,108.39c1,0,1.88,0,2.78,0a2.54,2.54,0,0,1,2.26,2.47c.07,1.22-.42,2.59,0,3.64a10.3,10.3,0,0,1,.5,3.61c0,.86,0,1.71,0,2.56a2.49,2.49,0,0,1-2.56,2.57c-.8,0-1.6,0-2.39,0-.44,0-.66-.11-.66-.59q0-6.94,0-13.88A1.87,1.87,0,0,1,55.26,108.39Zm2,7.34c0,1.61,0,3.17,0,4.73,0,.51,0,.84.7.8s.91-.22.89-.88c0-1.12,0-2.25,0-3.38C58.77,115.64,58.72,115.6,57.21,115.73Zm0-2.13c.83.21,1.12-.11,1.09-.82,0-.55,0-1.1,0-1.64s-.36-.89-1-.71Z" transform="translate(-30.14 -30.16)"/><path class="cls-1" d="M84.79,108.37c1.16,0,2.23-.05,3.3,0a2.38,2.38,0,0,1,2.25,2.34c0,2.31.06,4.63,0,6.94a3.41,3.41,0,0,1-.75,1.75.84.84,0,0,0-.15.94c.35.92.67,1.86,1.06,2.93a15,15,0,0,1-1.79,0c-.2,0-.44-.29-.53-.5-.28-.66-.5-1.35-.76-2a6.06,6.06,0,0,0-.36-.66l-.22.06v3.06h-2Zm2,9.71c1.44.18,1.55.09,1.55-1.27v-5.2c0-1.29-.23-1.46-1.55-1.14Z" transform="translate(-30.14 -30.16)"/><path class="cls-1" d="M95.09,108.41H97c0,.34,0,.66,0,1,0,3.36,0,6.73,0,10.09a3.94,3.94,0,0,0,0,.91,1,1,0,0,0,1,.89,1,1,0,0,0,1-1,7.61,7.61,0,0,0,0-.83v-11h2a2.2,2.2,0,0,1,.07.41c0,3.78,0,7.56,0,11.34a3.07,3.07,0,0,1-6.06.67,4.51,4.51,0,0,1-.1-.9q0-5.46,0-10.92C95,108.85,95.07,108.66,95.09,108.41Z" transform="translate(-30.14 -30.16)"/><path class="cls-1" d="M132.23,123.21h-2c-.21-1.41-.47-2.8-.6-4.19-.07-.77-.38-1-1.09-.91a10.47,10.47,0,0,1-1.13,0c-.24,1.72-.47,3.38-.7,5.08h-2c.21-1.41.41-2.8.62-4.17.49-3.27,1-6.54,1.47-9.82.09-.68.33-.91,1-.89,1.85,0,1.84,0,2.16,1.81.71,4.13,1.44,8.25,2.16,12.38C132.18,122.72,132.2,122.93,132.23,123.21Zm-3.06-7.15-.65-4.52h-.21l-.61,4.51Z" transform="translate(-30.14 -30.16)"/><path class="cls-1" d="M71,113.11H69v-2c0-.54-.12-1-.77-1s-.81.45-.85,1a3.54,3.54,0,0,0,.77,2.76c.93,1.12,1.74,2.34,2.57,3.54a1.7,1.7,0,0,1,.34.81,21.35,21.35,0,0,1,0,2.4,2.87,2.87,0,0,1-2.84,2.78,2.91,2.91,0,0,1-2.87-2.85c0-.71,0-1.42,0-2.28a11.94,11.94,0,0,1,1.6,0c.16,0,.39.33.41.53.07.54,0,1.1.06,1.65a.78.78,0,0,0,.83.84c.56,0,.72-.41.75-.9a3.82,3.82,0,0,0-.81-3.08c-.78-.85-1.34-1.89-2.07-2.78-1.26-1.53-.92-3.22-.46-4.85A2.59,2.59,0,0,1,68.62,108a2.71,2.71,0,0,1,2.4,2.28A23.57,23.57,0,0,1,71,113.11Z" transform="translate(-30.14 -30.16)"/><path class="cls-1" d="M144.61,108.4c.22,1.93.22,1.94-1.55,1.94H141.8c0,.92,0,1.77,0,2.61,0,.15.33.39.53.41a9.09,9.09,0,0,0,1.65,0c.51,0,.7.18.66.67a3.17,3.17,0,0,1,0,.82.82.82,0,0,1-.47.48,3.44,3.44,0,0,1-.91,0c-1.65,0-1.45-.27-1.47,1.51,0,1.43,0,2.86,0,4.38h2.83v1.94h-4.8V108.4Z" transform="translate(-30.14 -30.16)"/><path class="cls-1" d="M83.34,108.41c.31,1.92.31,1.93-1.5,1.93H80.57c0,.93,0,1.8,0,2.67,0,.13.32.33.5.35a7.42,7.42,0,0,0,1.49,0c.64-.06.93.15.85.83a10.87,10.87,0,0,0,0,1.16c-.83,0-1.56,0-2.29,0a.77.77,0,0,0-.55.48c0,1.76,0,3.51,0,5.38h2.82v2c-1.49,0-3,0-4.44,0-.14,0-.35-.29-.39-.48a5.44,5.44,0,0,1,0-1V108.41Z" transform="translate(-30.14 -30.16)"/><path class="cls-1" d="M123.31,112h-1.85a1.92,1.92,0,0,0-.11-.78,5.32,5.32,0,0,0-.76-.82c-.26.27-.73.54-.73.81q-.09,4.59,0,9.18a1.14,1.14,0,0,0,.72.79c.51.11.78-.31.8-.82s0-.76,0-1.07c.17-.09.21-.14.26-.14,1.7-.24,2.05.13,1.71,1.82a2.79,2.79,0,0,1-2.85,2.26,2.66,2.66,0,0,1-2.66-2.55c-.06-3.25-.07-6.5,0-9.75a2.7,2.7,0,0,1,3.17-2.51A2.86,2.86,0,0,1,123.31,112Z" transform="translate(-30.14 -30.16)"/><path class="cls-1" d="M135.6,113.5h2.73c.08.1.11.12.11.14.28,1.73.23,1.77-1.46,1.79s-1.42-.22-1.43,1.46q0,2.85,0,5.7c0,.85-.59.62-1,.63s-1,.2-1-.6c0-4.63,0-9.26,0-13.88a2,2,0,0,1,.06-.31h4.69s.07.07.07.1c.27,1.76.23,1.81-1.52,1.81H135.6Z" transform="translate(-30.14 -30.16)"/><path class="cls-1" d="M74.37,121.29h2.82v1.9H72.44c0-.24-.07-.5-.07-.76q0-6.66,0-13.3c0-.29.15-.8.29-.82a4.21,4.21,0,0,1,1.54.07c.11,0,.15.53.16.82,0,3.66,0,7.32,0,11Z" transform="translate(-30.14 -30.16)"/><path class="cls-1" d="M93.72,123.17H91.8V108.39h1.92Z" transform="translate(-30.14 -30.16)"/><path class="cls-1" d="M62.14,123.17c0-.37,0-.63,0-.9,0-4.35,0-8.7,0-13,0-.82.32-.94,1-.93s1,.08,1,.92c0,4.29,0,8.59,0,12.88,0,1.08,0,1.08-1.07,1.08Z" transform="translate(-30.14 -30.16)"/><path d="M84.76,79.34c.26,0,.53,0,.8,0,5.26,0,10.52,0,15.79,0,.84,0,1.07.3,1,1-.2,1.78-.42,3.55-.6,5.34a5.59,5.59,0,0,0,.71,3.85c-1.14.25-1.13,1.29-1.46,2a1.77,1.77,0,0,1-1,1.07,13.25,13.25,0,0,1-8.12.31,6,6,0,0,1-3.17-2.38,17,17,0,0,1-4-10.94C84.66,79.54,84.71,79.47,84.76,79.34Z" transform="translate(-30.14 -30.16)"/><path d="M108,79.43a20.9,20.9,0,0,1-3.37,9.21,2.09,2.09,0,0,1-1.41.64c-.22,0-.68-.52-.72-.85a19.83,19.83,0,0,1-.17-3.44c.13-1.83.42-3.65.65-5.56Z" transform="translate(-30.14 -30.16)"/><path d="M108.23,88.52a17.13,17.13,0,0,0,.86-1.84c.47-1.44.89-2.89,1.27-4.35.12-.46.24-.67.75-.61a3.87,3.87,0,0,1,3.22,3,3.64,3.64,0,0,1-1.58,4A3.81,3.81,0,0,1,108.23,88.52Z" transform="translate(-30.14 -30.16)"/><path d="M110.22,79.42a17.63,17.63,0,0,1-3.61,10.72l-.86-.61-.69-.53c.66-1.38,1.42-2.7,1.94-4.1a25.34,25.34,0,0,0,1.21-4.46c.17-.92.52-1.23,1.38-1.08C109.75,79.39,109.92,79.39,110.22,79.42Z" transform="translate(-30.14 -30.16)"/><path d="M107.46,89.73c.19-.63.44-.86,1.18-.49a4.11,4.11,0,0,0,4.71-.6,4.18,4.18,0,0,0-2.19-7.26c-.83-.11-.63-.56-.56-1,1.69-.31,3.92,1.12,4.76,3a5.23,5.23,0,0,1-7.9,6.36Z" transform="translate(-30.14 -30.16)"/><path d="M92.19,93.52a13.45,13.45,0,0,0,8.63-.88c.07.09.1.1.11.13.53,1.47.49,1.5-1,1.88A11,11,0,0,1,93,93.94C92.7,93.82,92.45,93.66,92.19,93.52Z" transform="translate(-30.14 -30.16)"/><path d="M101.37,94.53l.33,1.16H92.79c-1.17,0-1.18,0-1.16-1.15,0-.22,0-.44,0-.8A11.36,11.36,0,0,0,101.37,94.53Z" transform="translate(-30.14 -30.16)"/><path d="M102.13,78.92H98.57a1.8,1.8,0,0,1,2-1.21A1.4,1.4,0,0,1,102.13,78.92Z" transform="translate(-30.14 -30.16)"/><path d="M57.21,115.73c1.51-.13,1.56-.09,1.56,1.27,0,1.13,0,2.26,0,3.38,0,.66-.28.85-.89.88s-.7-.29-.7-.8C57.22,118.9,57.21,117.34,57.21,115.73Z" transform="translate(-30.14 -30.16)"/><path d="M57.24,113.6v-3.17c.69-.18,1,.12,1,.71s0,1.09,0,1.64C58.36,113.49,58.07,113.81,57.24,113.6Z" transform="translate(-30.14 -30.16)"/><path d="M86.79,118.08v-7.61c1.32-.32,1.55-.15,1.55,1.14v5.2C88.34,118.17,88.23,118.26,86.79,118.08Z" transform="translate(-30.14 -30.16)"/><path d="M129.17,116.06H127.7l.61-4.51h.21Z" transform="translate(-30.14 -30.16)"/></svg>